{"title":"Welcome To Karachi (2015) - 1CD - DVDSCR-Rip - Hindi - x264 - MP","uid":11975832,"size":738603428,"categoryP":"video","categoryS":"movies","magnet":"?xt=urn:btih:7d5a905ba22c47ec640ba7cf7da4dda1f33ff82c&amp;dn=Welcome+To+Karachi+%282015%29+-+1CD+-+DVDSCR-Rip+-+Hindi+-+x264+-+MP&amp;tr=udp%3A%2F%2Ftracker.openbittorrent.com%3A80&amp;tr=udp%3A%2F%2Fopen.demonii.com%3A1337&amp;tr=udp%3A%2F%2Ftracker.coppersurfer.tk%3A6969&amp;tr=udp%3A%2F%2Fexodus.desync.com%3A6969","seeders":10,"leechers":1,"uploader":"makintos13","files":4,"time":1433009724,"description":"Welcome To Karachi (2015) - 1CD - DVDSCR-Rip - Hindi - x264 - MP3 - Mafiaking - M2Tv\n\nscreens:\n &lt;a href=&quot;\nhttp://imgmak.com/5a&quot; rel=&quot;nofollow&quot; target=&quot;_NEW&quot;&gt;\nhttp://imgmak.com/5a&lt;/a&gt;\n &lt;a href=&quot;\nhttp://imgmak.com/5p&quot; rel=&quot;nofollow&quot; target=&quot;_NEW&quot;&gt;\nhttp://imgmak.com/5p&lt;/a&gt;\n &lt;a href=&quot;\nhttp://imgmak.com/5R&quot; rel=&quot;nofollow&quot; target=&quot;_NEW&quot;&gt;\nhttp://imgmak.com/5R&lt;/a&gt;\n &lt;a href=&quot;\nhttp://imgmak.com/5b&quot; rel=&quot;nofollow&quot; target=&quot;_NEW&quot;&gt;\nhttp://imgmak.com/5b&lt;/a&gt;\n &lt;a href=&quot;\nhttp://imgmak.com/5x&quot; rel=&quot;nofollow&quot; target=&quot;_NEW&quot;&gt;\nhttp://imgmak.com/5x&lt;/a&gt;\n &lt;a href=&quot;\nhttp://imgmak.com/5z&quot; rel=&quot;nofollow&quot; target=&quot;_NEW&quot;&gt;\nhttp://imgmak.com/5z&lt;/a&gt;\n\nVideo\nID : 1\nFormat : AVC\nFormat/Info : Advanced Video Codec\nFormat profile : &lt;a class=&quot;__cf_email__&quot; href=&quot;/cdn-cgi/l/email-protection&quot; data-cfemail=&quot;db93b2bcb39b97eff5ea&quot;&gt;[email&amp;#160;protected]&lt;/a&gt;&lt;script data-cfhash='f9e31' type=&quot;text/javascript&quot;&gt;\n/* &lt;![CDATA[ */!function(){try{var t=&quot;currentScript&quot;in document?document.currentScript:function(){for(var t=document.getElementsByTagName(&quot;script&quot;),e=t.length;e--;)if(t[e].getAttribute(&quot;data-cfhash&quot;))return t[e]}();if(t&amp;&amp;t.previousSibling){var e,r,n,i,c=t.previousSibling,a=c.getAttribute(&quot;data-cfemail&quot;);if(a){for(e=&quot;&quot;,r=parseInt(a.substr(0,2),16),n=2;a.length-n;n+=2)i=parseInt(a.substr(n,2),16)^r,e+=String.fromCharCode(i);e=document.createTextNode(e),c.parentNode.replaceChild(e,c)}t.parentNode.removeChild(t);}}catch(u){}}()/* ]]&gt; */&lt;/script&gt;\nFormat settings, CABAC : Yes\nFormat settings, ReFrames : 4 frames\nCodec ID : V_MPEG4/ISO/AVC\nDuration : 1h 54mn\nBit rate : 764 Kbps\nWidth : 640 pixels\nHeight : 272 pixels\nDisplay aspect ratio : 2.35:1\nFrame rate mode : Constant\nFrame rate : 29.970 fps\nColor space : YUV\nChroma subsampling : 4:2:0\nBit depth : 8 bits\nScan type : Progressive\nBits/(Pixel*Frame) : 0.146\nStream size : 616 MiB (89%)\nTitle : Mafiaking\nLanguage : Hindi\nDefault : Yes\nForced : No\n\nAudio\nID : 2\nFormat : MPEG Audio\nFormat version : Version 1\nFormat profile : Layer 3\nMode : Joint stereo\nMode extension : MS Stereo\nCodec ID : A_MPEG/L3\nCodec ID/Hint : MP3\nDuration : 1h 54mn\nBit rate mode : Constant\nBit rate : 80.0 Kbps\nChannel(s) : 2 channels\nSampling rate : 32.0 KHz\nCompression mode : Lossy\nStream size : 65.8 MiB (9%)\nTitle : Mafiaking\nWriting library : LAME3.99r\nLanguage : Hindi\nDefault : Yes\nForced : No\n\n\nTPB NEW FORUM : https://pirates-forum.org/index.php/","torrent":{"xt":"urn:btih:7d5a905ba22c47ec640ba7cf7da4dda1f33ff82c","amp;dn":"Welcome+To+Karachi+%282015%29+-+1CD+-+DVDSCR-Rip+-+Hindi+-+x264+-+MP","amp;tr":["udp%3A%2F%2Ftracker.openbittorrent.com%3A80","udp%3A%2F%2Fopen.demonii.com%3A1337","udp%3A%2F%2Ftracker.coppersurfer.tk%3A6969","udp%3A%2F%2Fexodus.desync.com%3A6969"],"infoHash":"7d5a905ba22c47ec640ba7cf7da4dda1f33ff82c","infoHashBuffer":{"type":"Buffer","data":[125,90,144,91,162,44,71,236,100,11,167,207,125,164,221,161,243,63,248,44]},"announce":[],"urlList":[]}}